<svg width="54" height="26" viewBox="0 0 54 26" fill="none" xmlns="http://www.w3.org/2000/svg">
<g clip-path="url(#clip0_349_26793)">
<path d="M30.8451 11.6592C30.6585 12.138 30.4832 12.5901 30.3062 13.0417C28.8629 16.7259 27.4196 20.4097 25.9763 24.0939C25.7604 24.6456 25.5469 25.1981 25.3231 25.7463C25.2949 25.8149 25.2108 25.9068 25.1519 25.9073C24.2682 25.9175 23.3845 25.9145 22.4606 25.9145C23.2108 24.007 23.9511 22.1243 24.7084 20.1986H24.4356C22.7432 20.1986 21.0513 20.202 19.3589 20.1935C19.1748 20.1926 19.0957 20.256 19.0306 20.425C18.3471 22.195 17.6544 23.9611 16.9705 25.731C16.9162 25.8711 16.8491 25.9196 16.7019 25.9183C15.8534 25.9111 15.0045 25.9145 14.1221 25.9145C14.2443 25.5927 14.3563 25.2922 14.4727 24.9938C16.173 20.6319 17.8749 16.2705 19.5719 11.9073C19.6411 11.729 19.7199 11.6519 19.9234 11.6523C23.4943 11.6604 27.0652 11.6587 30.6366 11.6592C30.6971 11.6592 30.7576 11.6592 30.8463 11.6592H30.8451ZM26.9384 14.5214C26.8721 14.5154 26.8455 14.5107 26.819 14.5107C25.0454 14.5107 23.2717 14.5124 21.4981 14.5073C21.3675 14.5073 21.3186 14.5622 21.2759 14.6733C20.9572 15.5021 20.6334 16.3288 20.3122 17.1563C20.2878 17.2189 20.2687 17.2836 20.2459 17.3517C20.2878 17.3602 20.3076 17.3674 20.328 17.3674C22.1153 17.3683 23.903 17.367 25.6903 17.3721C25.8217 17.3721 25.8507 17.2955 25.8876 17.2018C26.1446 16.5454 26.4029 15.8899 26.6607 15.234C26.7502 15.0058 26.8389 14.7772 26.9388 14.5214H26.9384Z" fill="white"/>
<path d="M0.216235 25.9154C0.333124 25.6106 0.434676 25.3425 0.538715 25.076C1.98366 21.3697 3.42861 17.6638 4.87397 13.9574C5.15334 13.241 5.43644 12.5263 5.71167 11.8086C5.7527 11.7022 5.79871 11.6562 5.91809 11.6562C9.53045 11.6601 13.1428 11.6592 16.7552 11.6597C16.7892 11.6597 16.8227 11.6656 16.8841 11.6711C16.7469 12.03 16.6172 12.3773 16.482 12.7221C14.7896 17.0423 13.0947 21.3616 11.4073 25.6843C11.336 25.8673 11.2498 25.9235 11.062 25.9209C10.2886 25.909 9.51512 25.9158 8.74125 25.915C8.67493 25.915 8.60861 25.9086 8.50954 25.9039C9.25771 23.9986 9.99594 22.1184 10.7445 20.2123C10.6517 20.2072 10.5796 20.1999 10.5078 20.1999C8.81544 20.1995 7.12345 20.2016 5.43105 20.1957C5.27437 20.1952 5.20183 20.2463 5.14463 20.394C4.45698 22.1703 3.76062 23.9433 3.07421 25.72C3.01659 25.8694 2.94862 25.9222 2.79152 25.9205C1.94926 25.9124 1.10741 25.9167 0.21582 25.9167L0.216235 25.9154ZM12.9824 14.5317C12.9356 14.5206 12.9157 14.5121 12.8954 14.5121C11.1213 14.5112 9.34724 14.5121 7.5736 14.5074C7.44386 14.5074 7.41526 14.5806 7.37796 14.6768C7.05423 15.5116 6.72719 16.3446 6.40223 17.1789C6.38067 17.2343 6.36658 17.2921 6.34295 17.3688C8.16468 17.3688 9.95863 17.3696 11.7526 17.3645C11.8044 17.3645 11.8836 17.3109 11.903 17.2624C12.2645 16.3608 12.6185 15.4562 12.9824 14.5321V14.5317Z" fill="white"/>
<path d="M28.0215 25.9097C28.4476 24.8153 28.8608 23.7511 29.2753 22.6878C30.6793 19.0883 32.0852 15.4892 33.4842 11.8876C33.5505 11.7169 33.6251 11.6522 33.8083 11.6548C34.5818 11.6658 35.3556 11.6671 36.1295 11.6531C36.3231 11.6497 36.389 11.7216 36.4342 11.8987C36.8876 13.669 37.3481 15.4377 37.8066 17.2064C37.8153 17.2396 37.8248 17.2719 37.8455 17.3464C38.0296 17.0914 38.195 16.8633 38.3587 16.6343C41.3485 12.4529 44.3383 8.27152 47.3276 4.08972C48.2424 2.80972 49.1568 1.52972 50.0675 0.246748C50.1479 0.133093 50.2312 0.0883979 50.3717 0.0845669C51.1792 0.0641346 51.9858 0.0300808 52.7932 0.00113513C52.8616 -0.00141891 52.93 0.00113513 53.0287 0.00113513C52.9511 0.115215 52.8886 0.212694 52.8214 0.306342C49.8117 4.51709 46.8016 8.72784 43.7911 12.9386C42.1045 15.2977 40.4163 17.655 38.7326 20.0162C38.6397 20.1465 38.5452 20.2061 38.3798 20.204C37.5856 20.1933 36.791 20.1954 35.9965 20.2023C35.8481 20.2035 35.7846 20.1631 35.7449 20.0064C35.4174 18.7137 35.0788 17.4235 34.743 16.1328C34.7326 16.0932 34.719 16.0545 34.6933 15.9706C34.6298 16.1196 34.5797 16.229 34.5362 16.341C33.3188 19.462 32.1006 22.5826 30.8906 25.7066C30.8247 25.8769 30.7414 25.9254 30.5744 25.9237C29.7868 25.9161 28.9993 25.9203 28.2117 25.9199C28.1583 25.9199 28.1044 25.9148 28.0223 25.9101L28.0215 25.9097Z" fill="white"/>
<path d="M47.4823 25.9039H44.7039C44.536 25.0513 44.3677 24.2072 44.2036 23.3622C43.8496 21.5386 43.4973 19.7146 43.1475 17.8902C43.1354 17.8285 43.1371 17.7429 43.1703 17.6965C43.865 16.7179 44.565 15.7431 45.2643 14.7679C45.2676 14.7632 45.2759 14.7628 45.307 14.75C46.0315 18.464 46.7549 22.1733 47.4827 25.9043L47.4823 25.9039Z" fill="white"/>
</g>
<defs>
<clipPath id="clip0_349_26793">
<rect width="53.0282" height="25.8713" fill="white"/>
</clipPath>
</defs>
</svg>
