<svg width="32" height="32" viewBox="0 0 32 32" fill="none" xmlns="http://www.w3.org/2000/svg">
<path fill-rule="evenodd" clip-rule="evenodd" d="M7.29946 19.886C6.77293 20.0271 6.50967 20.0976 6.41463 20.323C6.31959 20.5484 6.4446 20.7714 6.69462 21.2175C7.21679 22.1492 7.87862 23.002 8.66183 23.7444C10.1581 25.1626 12.0332 26.1168 14.0604 26.4915C16.0876 26.8663 18.18 26.6456 20.0844 25.8561C21.9888 25.0667 23.6236 23.7423 24.7911 22.0431C25.9585 20.344 26.6086 18.343 26.6626 16.2821C26.7166 14.2213 26.1723 12.1889 25.0954 10.431C24.0186 8.67302 22.4554 7.26477 20.595 6.37661C19.1137 5.66944 17.4945 5.31612 15.8643 5.3368C15.3529 5.34328 15.0972 5.34652 14.9495 5.54152C14.8019 5.73652 14.8724 5.9998 15.0135 6.52637L17.3708 15.3239L17.3734 15.3333C17.3858 15.3783 17.4275 15.5301 17.4469 15.6808C17.4736 15.8881 17.4902 16.2957 17.2448 16.7208C16.9993 17.146 16.6381 17.3353 16.4452 17.4159C16.305 17.4744 16.1527 17.5141 16.1075 17.5259L16.1075 17.5259L16.098 17.5284L7.29946 19.886Z" fill="#85CAFF"/>
<path d="M12.8092 4.08822C12.6855 3.62664 12.6237 3.39585 12.4308 3.29393C12.2379 3.192 12.0236 3.26702 11.5951 3.41707C10.2616 3.88398 9.00873 4.56059 7.88448 5.42326C6.49535 6.48917 5.32978 7.81826 4.4543 9.33464C3.57882 10.851 3.01058 12.525 2.78204 14.261C2.59707 15.6659 2.63753 17.0892 2.89992 18.4775C2.98424 18.9237 3.02641 19.1467 3.21113 19.2628C3.39585 19.3789 3.62664 19.3171 4.08822 19.1934L15.0354 16.2601C15.4907 16.1381 15.7184 16.0771 15.8219 15.8977C15.9255 15.7184 15.8645 15.4907 15.7425 15.0354L12.8092 4.08822Z" fill="url(#paint0_linear_1141_68864)"/>
<defs>
<linearGradient id="paint0_linear_1141_68864" x1="-3.61302" y1="-33.9987" x2="37.067" y2="-29.9913" gradientUnits="userSpaceOnUse">
<stop offset="0.00394059" stop-color="#2C73F3"/>
<stop offset="1" stop-color="#30CDE7"/>
</linearGradient>
</defs>
</svg>
