<svg width="24" height="24" viewBox="0 0 24 24" fill="none" xmlns="http://www.w3.org/2000/svg">
<g clip-path="url(#clip0_921_18533)">
<path d="M16.9688 0H7.03125C3.14813 0 0 3.14813 0 7.03125V16.9688C0 20.8519 3.14813 24 7.03125 24H16.9688C20.8519 24 24 20.8519 24 16.9688V7.03125C24 3.14813 20.8519 0 16.9688 0ZM8.40844 18.8189C8.40844 19.9716 7.47375 20.9062 6.32109 20.9062C5.16844 20.9062 4.23375 19.9716 4.23375 18.8189V11.1187C4.23375 9.96609 5.16844 9.03141 6.32109 9.03141C7.47375 9.03141 8.40844 9.96609 8.40844 11.1187V18.8189ZM14.0873 18.8189C14.0873 19.9716 13.1527 20.9062 12 20.9062C10.8473 20.9062 9.91266 19.9716 9.91266 18.8189V5.18109C9.91266 4.02844 10.8473 3.09375 12 3.09375C13.1527 3.09375 14.0873 4.02844 14.0873 5.18109V18.8189ZM19.7663 18.8189C19.7663 19.9716 18.8316 20.9062 17.6789 20.9062C16.5262 20.9062 15.5916 19.9716 15.5916 18.8189V17.0564C15.5916 15.9037 16.5262 14.9691 17.6789 14.9691C18.8316 14.9691 19.7663 15.9037 19.7663 17.0564V18.8189Z" fill="#83BEFF"/>
</g>
<defs>
<clipPath id="clip0_921_18533">
<rect width="24" height="24" fill="white"/>
</clipPath>
</defs>
</svg>
