<svg width="28" height="28" viewBox="0 0 28 28" fill="none" xmlns="http://www.w3.org/2000/svg">
<path d="M14 17.3333H14.8333C15.3889 17.3333 16.5 17 16.5 15.6667C16.5 14.3333 15.3889 14 14.8333 14H13.1667C12.6111 14 11.5 13.6667 11.5 12.3333C11.5 11 12.6111 10.6667 13.1667 10.6667H14M14 17.3333H11.5M14 17.3333V19M16.5 10.6667H14M14 10.6667V9M21.5 14C21.5 18.1421 18.1421 21.5 14 21.5C9.85786 21.5 6.5 18.1421 6.5 14C6.5 9.85786 9.85786 6.5 14 6.5C18.1421 6.5 21.5 9.85786 21.5 14Z" stroke="#348EF1" stroke-linecap="round" stroke-linejoin="round"/>
</svg>
