<svg width="21" height="22" viewBox="0 0 21 22" fill="none" xmlns="http://www.w3.org/2000/svg">
<path d="M1.00214 7.38837C1.00214 6.18505 1.00214 5.58329 1.18723 5.10485C1.46653 4.38286 2.0371 3.81229 2.75888 3.533C3.23752 3.3479 3.83929 3.3479 5.04261 3.3479H16.2018C17.4051 3.3479 18.0069 3.3479 18.4853 3.533C19.2071 3.81229 19.7779 4.38286 20.0572 5.10485C20.2423 5.58329 20.2423 6.18505 20.2423 7.38837V13.3116H1.00214V7.38837Z" fill="url(#paint0_linear_2001_50446)"/>
<path d="M7.87495 2.4036C7.87495 1.2651 6.95201 0.342163 5.81351 0.342163C4.67501 0.342163 3.75208 1.2651 3.75208 2.4036V3.77789C3.75208 4.91639 4.67501 5.83933 5.81351 5.83933C6.95201 5.83933 7.87495 4.91639 7.87495 3.77789V2.4036Z" fill="#B5D7FF" fill-opacity="0.6"/>
<path d="M7.81324 2.4051C7.81324 1.3015 6.9186 0.40686 5.81501 0.40686C4.71141 0.40686 3.81677 1.3015 3.81677 2.4051V3.77938C3.81677 4.88298 4.71141 5.77762 5.81501 5.77762C6.9186 5.77762 7.81324 4.88298 7.81324 3.77938V2.4051Z" stroke="url(#paint1_linear_2001_50446)" stroke-width="0.611895"/>
<path d="M17.4972 2.4036C17.4972 1.2651 16.5743 0.342163 15.4358 0.342163C14.2973 0.342163 13.3743 1.2651 13.3743 2.4036V3.77789C13.3743 4.91639 14.2973 5.83933 15.4358 5.83933C16.5743 5.83933 17.4972 4.91639 17.4972 3.77789V2.4036Z" fill="#B5D7FF" fill-opacity="0.6"/>
<path d="M17.4355 2.4051C17.4355 1.3015 16.5409 0.40686 15.4373 0.40686C14.3337 0.40686 13.439 1.3015 13.439 2.4051V3.77938C13.439 4.88298 14.3337 5.77762 15.4373 5.77762C16.5409 5.77762 17.4355 4.88298 17.4355 3.77938V2.4051Z" stroke="url(#paint2_linear_2001_50446)" stroke-width="0.611895"/>
<path d="M1.00214 11.6165C1.00214 10.0771 1.00214 9.30734 1.30167 8.71942C1.56527 8.20235 1.98566 7.78176 2.50293 7.51817C3.09085 7.21863 3.86057 7.21863 5.39978 7.21863H15.8444C17.3838 7.21863 18.1535 7.21863 18.7415 7.51817C19.2587 7.78176 19.6791 8.20235 19.9427 8.71942C20.2423 9.30734 20.2423 10.0771 20.2423 11.6165V14.365C20.2423 16.6739 20.2423 17.8285 19.7928 18.7104C19.3976 19.4863 18.7669 20.117 17.9912 20.5122C17.1091 20.9617 15.9547 20.9617 13.6456 20.9617H7.59861C5.28968 20.9617 4.13511 20.9617 3.25323 20.5122C2.47752 20.117 1.84684 19.4863 1.45145 18.7104C1.00214 17.8285 1.00214 16.6739 1.00214 14.365V11.6165Z" fill="#B5D7FF" fill-opacity="0.6"/>
<path d="M5.40127 7.28333H15.8459C16.6166 7.28333 17.1909 7.28333 17.646 7.32051C18.1005 7.35769 18.4306 7.43165 18.7142 7.57605C19.2195 7.83344 19.6304 8.24433 19.8878 8.74962C20.0322 9.03325 20.1062 9.36337 20.1434 9.81784C20.1805 10.2729 20.1805 10.8472 20.1805 11.618V14.3665C20.1805 15.5221 20.1805 16.385 20.1246 17.0692C20.0688 17.7527 19.9574 18.2527 19.738 18.6832C19.3489 19.4471 18.7277 20.0683 17.9639 20.4575C17.5332 20.6769 17.0335 20.788 16.3499 20.844C15.6656 20.8998 14.8027 20.9 13.6471 20.9H7.6001C6.4447 20.9 5.58182 20.8998 4.89742 20.844C4.21385 20.788 3.71394 20.6769 3.28342 20.4575C2.5195 20.0683 1.89852 19.4471 1.50932 18.6832C1.28994 18.2527 1.17859 17.7527 1.12282 17.0692C1.06683 16.385 1.06683 15.5221 1.06683 14.3665V11.618C1.06683 10.8472 1.06683 10.2729 1.10402 9.81784C1.1412 9.36337 1.21495 9.03325 1.35956 8.74962C1.61695 8.24433 2.02784 7.83344 2.53313 7.57605C2.81656 7.43165 3.14688 7.35769 3.60114 7.32051C4.05644 7.28333 4.63052 7.28333 5.40127 7.28333Z" stroke="url(#paint3_linear_2001_50446)" stroke-width="0.611895"/>
<path d="M14.0586 12.7083C14.4381 12.7083 14.7458 12.4006 14.7458 12.0211C14.7458 11.6416 14.4381 11.334 14.0586 11.334H7.18718C6.80768 11.334 6.50003 11.6416 6.50003 12.0211C6.50003 12.4006 6.80768 12.7083 7.18718 12.7083H14.0586Z" fill="url(#paint4_linear_2001_50446)" fill-opacity="0.9"/>
<path d="M14.0597 12.6566C14.4113 12.6566 14.6963 12.3716 14.6963 12.02C14.6963 11.6684 14.4113 11.3834 14.0597 11.3834H7.18824C6.83666 11.3834 6.55165 11.6684 6.55165 12.02C6.55165 12.3716 6.83666 12.6566 7.18824 12.6566H14.0597Z" stroke="url(#paint5_linear_2001_50446)" stroke-width="0.489516"/>
<path d="M14.0586 16.8311C14.4381 16.8311 14.7458 16.5234 14.7458 16.1439C14.7458 15.7644 14.4381 15.4568 14.0586 15.4568H7.18718C6.80768 15.4568 6.50003 15.7644 6.50003 16.1439C6.50003 16.5234 6.80768 16.8311 7.18718 16.8311H14.0586Z" fill="url(#paint6_linear_2001_50446)" fill-opacity="0.9"/>
<path d="M14.0597 16.7794C14.4113 16.7794 14.6963 16.4944 14.6963 16.1428C14.6963 15.7912 14.4113 15.5062 14.0597 15.5062H7.18824C6.83666 15.5062 6.55165 15.7912 6.55165 16.1428C6.55165 16.4944 6.83666 16.7794 7.18824 16.7794H14.0597Z" stroke="url(#paint7_linear_2001_50446)" stroke-width="0.489516"/>
<defs>
<linearGradient id="paint0_linear_2001_50446" x1="-1.00746" y1="8.33699" x2="4.96308" y2="14.1123" gradientUnits="userSpaceOnUse">
<stop stop-color="#61BDFF"/>
<stop offset="1" stop-color="#287AF5"/>
</linearGradient>
<linearGradient id="paint1_linear_2001_50446" x1="3.54739" y1="0.736312" x2="7.84341" y2="5.65704" gradientUnits="userSpaceOnUse">
<stop stop-color="white"/>
<stop offset="0.765625" stop-color="white" stop-opacity="0"/>
</linearGradient>
<linearGradient id="paint2_linear_2001_50446" x1="13.1696" y1="0.736312" x2="17.4655" y2="5.65704" gradientUnits="userSpaceOnUse">
<stop stop-color="white"/>
<stop offset="0.765625" stop-color="white" stop-opacity="0"/>
</linearGradient>
<linearGradient id="paint3_linear_2001_50446" x1="0.041583" y1="8.20177" x2="8.36051" y2="25.989" gradientUnits="userSpaceOnUse">
<stop stop-color="white"/>
<stop offset="0.765625" stop-color="white" stop-opacity="0"/>
</linearGradient>
<linearGradient id="paint4_linear_2001_50446" x1="15.719" y1="13.7386" x2="7.882" y2="11.969" gradientUnits="userSpaceOnUse">
<stop stop-color="white" stop-opacity="0"/>
<stop offset="0.979167" stop-color="white"/>
</linearGradient>
<linearGradient id="paint5_linear_2001_50446" x1="14.7469" y1="12.1213" x2="6.5011" y2="12.1213" gradientUnits="userSpaceOnUse">
<stop stop-color="white" stop-opacity="0"/>
<stop offset="1" stop-color="white"/>
</linearGradient>
<linearGradient id="paint6_linear_2001_50446" x1="14.8342" y1="17.2778" x2="8.26107" y2="16.0137" gradientUnits="userSpaceOnUse">
<stop stop-color="white" stop-opacity="0"/>
<stop offset="0.979167" stop-color="white"/>
</linearGradient>
<linearGradient id="paint7_linear_2001_50446" x1="14.7469" y1="16.2441" x2="6.5011" y2="16.2441" gradientUnits="userSpaceOnUse">
<stop stop-color="white" stop-opacity="0"/>
<stop offset="1" stop-color="white"/>
</linearGradient>
</defs>
</svg>
