<svg width="24" height="24" viewBox="0 0 24 24" fill="none" xmlns="http://www.w3.org/2000/svg">
<path fill-rule="evenodd" clip-rule="evenodd" d="M24 7C24 3.13401 20.866 0 17 0H7C3.13401 0 0 3.13401 0 7V17C0 20.866 3.13401 24 7 24H17C20.866 24 24 20.866 24 17V7ZM3.68283 13.4955C3.80131 13.4966 3.91782 13.4651 4.01962 13.4045L16.993 6.10696C17.2485 5.96324 17.5642 6.14788 17.5642 6.44103C17.5642 6.6221 17.6362 6.79574 17.7642 6.92377C17.8922 7.0518 18.0659 7.12373 18.2469 7.12373C18.428 7.12373 18.6016 7.0518 18.7297 6.92377C18.8577 6.79574 18.9296 6.6221 18.9296 6.44103V5.18488C18.9288 4.88492 18.8428 4.59137 18.6817 4.33838C18.5205 4.08538 18.2908 3.88334 18.0194 3.75578L16.6995 3.10039C16.6185 3.05085 16.5281 3.01873 16.4341 3.00608C16.34 2.99344 16.2443 3.00055 16.1532 3.02696C16.062 3.05337 15.9773 3.0985 15.9046 3.15947C15.8319 3.22043 15.7726 3.2959 15.7307 3.38104C15.6888 3.46619 15.665 3.55915 15.661 3.65398C15.657 3.74881 15.6729 3.84343 15.7075 3.93179C15.7421 4.02016 15.7948 4.10034 15.8622 4.16721C15.9295 4.23407 16.0101 4.28616 16.0987 4.32014C16.3831 4.44364 16.4039 4.83909 16.134 4.99169L3.34603 12.2212C3.216 12.296 3.11424 12.4116 3.05649 12.5501C2.99875 12.6886 2.98823 12.8422 3.02657 12.9873C3.0649 13.1323 3.14996 13.2607 3.26858 13.3526C3.38721 13.4445 3.53279 13.4947 3.68283 13.4955ZM18.5 8.90381C18.1022 8.90381 17.7206 9.16135 17.4393 9.61977C17.158 10.0782 17 10.6999 17 11.3483V18.4594C17 19.1077 17.158 19.7294 17.4393 20.1878C17.7206 20.6463 18.1022 20.9038 18.5 20.9038C18.8978 20.9038 19.2794 20.6463 19.5607 20.1878C19.842 19.7294 20 19.1077 20 18.4594V11.3483C20 10.6999 19.842 10.0782 19.5607 9.61977C19.2794 9.16135 18.8978 8.90381 18.5 8.90381ZM11.5 11.9038C11.1022 11.9038 10.7206 12.1783 10.4393 12.6669C10.158 13.1555 10 13.8181 10 14.5091V18.2985C10 18.9895 10.158 19.6522 10.4393 20.1407C10.7206 20.6293 11.1022 20.9038 11.5 20.9038C11.8978 20.9038 12.2794 20.6293 12.5607 20.1407C12.842 19.6522 13 18.9895 13 18.2985V14.5091C13 13.8181 12.842 13.1555 12.5607 12.6669C12.2794 12.1783 11.8978 11.9038 11.5 11.9038ZM7 18.9038C7 20.0084 6.10457 20.9038 5 20.9038C3.89543 20.9038 3 20.0084 3 18.9038C3 17.7992 3.89543 16.9038 5 16.9038C6.10457 16.9038 7 17.7992 7 18.9038Z" fill="#83BEFF"/>
</svg>
