<svg width="18" height="23" viewBox="0 0 18 23" fill="none" xmlns="http://www.w3.org/2000/svg">
<path d="M0.932558 17.0348C1.18479 15.5214 1.31101 14.7647 1.74896 14.2365C1.93942 14.0068 2.16893 13.8122 2.42715 13.662C3.02004 13.317 3.78706 13.317 5.32153 13.317H12.6144C14.1486 13.317 14.9157 13.317 15.5088 13.662C15.7668 13.8122 15.9963 14.0068 16.187 14.2365C16.6247 14.7647 16.7509 15.5214 17.0031 17.0348C17.3438 19.0793 17.5142 20.1015 17.1137 20.8604C16.9412 21.1868 16.6997 21.4719 16.4059 21.6956C15.7234 22.2156 14.687 22.2156 12.6144 22.2156H5.32153C3.24872 22.2156 2.21231 22.2156 1.52978 21.6956C1.23602 21.4719 0.99453 21.1868 0.822244 20.8604C0.421481 20.1015 0.591909 19.0793 0.932558 17.0348Z" fill="url(#paint0_linear_2001_50447)"/>
<path d="M15.3256 7.38699C15.3256 11.1314 12.4798 18.4045 8.96938 18.4045C5.45878 18.4045 2.61316 11.1314 2.61316 7.38699C2.61316 3.64255 5.45878 0.606934 8.96938 0.606934C12.4798 0.606934 15.3256 3.64255 15.3256 7.38699Z" fill="#FFB7B5" fill-opacity="0.6"/>
<path d="M15.2611 7.38569C15.2611 9.24572 14.5531 11.9903 13.4062 14.2699C12.8329 15.4094 12.1518 16.4289 11.3982 17.1626C10.6442 17.8968 9.82308 18.3395 8.96846 18.3395C8.11364 18.3395 7.29269 17.8968 6.53868 17.1626C5.78488 16.4289 5.10379 15.4094 4.53074 14.2699C3.38381 11.9903 2.67566 9.24572 2.67566 7.38569C2.67566 3.67223 5.4969 0.669189 8.96846 0.669189C12.44 0.669189 15.2611 3.67223 15.2611 7.38569Z" stroke="url(#paint1_linear_2001_50447)" stroke-width="0.615382"/>
<path d="M8.96745 9.43992C10.3367 9.43992 11.4468 8.3299 11.4468 6.96062C11.4468 5.59134 10.3367 4.48132 8.96745 4.48132C7.59818 4.48132 6.48816 5.59134 6.48816 6.96062C6.48816 8.3299 7.59818 9.43992 8.96745 9.43992Z" fill="url(#paint2_linear_2001_50447)" fill-opacity="0.9" stroke="url(#paint3_linear_2001_50447)" stroke-width="0.611895"/>
<defs>
<linearGradient id="paint0_linear_2001_50447" x1="3.27681" y1="19.8538" x2="15.5178" y2="29.1197" gradientUnits="userSpaceOnUse">
<stop stop-color="#FF6161"/>
<stop offset="1" stop-color="#F52828"/>
</linearGradient>
<linearGradient id="paint1_linear_2001_50447" x1="8.96846" y1="0.605625" x2="15.3247" y2="19.6744" gradientUnits="userSpaceOnUse">
<stop stop-color="white"/>
<stop offset="0.76944" stop-color="white" stop-opacity="0"/>
</linearGradient>
<linearGradient id="paint2_linear_2001_50447" x1="7.49062" y1="5.89178" x2="15.0748" y2="7.91439" gradientUnits="userSpaceOnUse">
<stop stop-color="white"/>
<stop offset="1" stop-color="white" stop-opacity="0"/>
</linearGradient>
<linearGradient id="paint3_linear_2001_50447" x1="7.74327" y1="5.25986" x2="10.6507" y2="8.54632" gradientUnits="userSpaceOnUse">
<stop stop-color="white"/>
<stop offset="1" stop-color="white" stop-opacity="0"/>
</linearGradient>
</defs>
</svg>
