<svg width="20" height="22" viewBox="0 0 20 22" fill="none" xmlns="http://www.w3.org/2000/svg">
<path d="M0.505249 10.6825C0.505249 8.68677 0.505249 7.68878 1.0595 6.95398C1.61375 6.21918 2.57331 5.94505 4.49222 5.39679L7.86007 4.43455C8.98531 4.11311 9.54782 3.95239 10.1252 3.95239C10.7028 3.95239 11.2653 4.11311 12.3906 4.43455L15.7584 5.39679C17.6773 5.94505 18.6369 6.21918 19.1911 6.95398C19.7454 7.68878 19.7454 8.68677 19.7454 10.6825V13.4075C19.7454 17.2945 19.7454 19.2382 18.5377 20.4456C17.3303 21.6533 15.3868 21.6533 11.4996 21.6533H8.75105C4.86386 21.6533 2.92036 21.6533 1.7127 20.4456C0.505248 19.2382 0.505249 17.2945 0.505249 13.4075V10.6825Z" fill="url(#paint0_linear_2001_50449)"/>
<path fill-rule="evenodd" clip-rule="evenodd" d="M3.93993 1.03882C2.80147 1.03882 1.87848 2.31244 1.87848 3.88359V10.1091C5.91565 13.1718 8.04072 16.1407 10.1243 16.156C12.2518 16.1715 14.3364 13.1691 18.3699 10.1091V3.88359C18.3699 2.31244 17.4471 1.03882 16.3084 1.03882H3.93993Z" fill="#B9DDFF" fill-opacity="0.6"/>
<path d="M1.94165 3.88312C1.94165 3.10928 2.16889 2.4115 2.53329 1.90862C2.8979 1.40569 3.39597 1.10156 3.93989 1.10156H16.3084C16.8525 1.10156 17.3506 1.40569 17.715 1.90862C18.0794 2.4115 18.3066 3.10928 18.3066 3.88312V10.0772C16.863 11.1745 15.6676 12.2651 14.6328 13.2089C14.2294 13.577 13.8505 13.9226 13.4906 14.2379C12.8457 14.8029 12.2632 15.2691 11.711 15.593C11.159 15.9168 10.6411 16.0961 10.1246 16.0923C9.61895 16.0886 9.10663 15.9058 8.55672 15.5806C8.0066 15.2553 7.42301 14.7901 6.77539 14.2271C6.41202 13.9113 6.0286 13.5646 5.62061 13.1957C4.58235 12.257 3.38316 11.1729 1.94165 10.0772V3.88312Z" stroke="url(#paint1_linear_2001_50449)" stroke-width="0.611895"/>
<path d="M13.5599 6.48557C13.9115 6.48557 14.1965 6.20056 14.1965 5.84899C14.1965 5.49741 13.9115 5.2124 13.5599 5.2124L6.68848 5.2124C6.3369 5.2124 6.0519 5.49741 6.0519 5.84899C6.0519 6.20056 6.3369 6.48557 6.68848 6.48557H13.5599Z" fill="url(#paint2_linear_2001_50449)" fill-opacity="0.9" stroke="url(#paint3_linear_2001_50449)" stroke-width="0.489516"/>
<path d="M13.5599 10.6083C13.9115 10.6083 14.1965 10.3232 14.1965 9.97167C14.1965 9.62009 13.9115 9.33508 13.5599 9.33508H6.68848C6.3369 9.33508 6.0519 9.62009 6.0519 9.97167C6.0519 10.3232 6.3369 10.6083 6.68848 10.6083H13.5599Z" fill="url(#paint4_linear_2001_50449)" fill-opacity="0.9" stroke="url(#paint5_linear_2001_50449)" stroke-width="0.489516"/>
<path fill-rule="evenodd" clip-rule="evenodd" d="M19.6311 8.23385C19.7084 8.68419 19.7331 9.22976 19.741 9.91519L10.5582 17.3764C10.3057 17.5815 9.94399 17.5815 9.69156 17.3764L0.508301 9.91519C0.516357 9.22976 0.54094 8.68398 0.618407 8.23364L10.1248 15.9576L19.6311 8.23385Z" fill="url(#paint6_linear_2001_50449)"/>
<defs>
<linearGradient id="paint0_linear_2001_50449" x1="6.0552" y1="7.6956" x2="20.5727" y2="13.072" gradientUnits="userSpaceOnUse">
<stop stop-color="#7FC0FB"/>
<stop offset="1" stop-color="#4088F4"/>
</linearGradient>
<linearGradient id="paint1_linear_2001_50449" x1="10.8113" y1="-1.22922" x2="10.5229" y2="13.1263" gradientUnits="userSpaceOnUse">
<stop stop-color="white"/>
<stop offset="0.996024" stop-color="white" stop-opacity="0"/>
</linearGradient>
<linearGradient id="paint2_linear_2001_50449" x1="4.70135" y1="6.02839" x2="15.77" y2="6.02839" gradientUnits="userSpaceOnUse">
<stop stop-color="white"/>
<stop offset="1" stop-color="white" stop-opacity="0"/>
</linearGradient>
<linearGradient id="paint3_linear_2001_50449" x1="3.21191" y1="2.53039" x2="15.8525" y2="8.47139" gradientUnits="userSpaceOnUse">
<stop stop-color="white"/>
<stop offset="1" stop-color="white" stop-opacity="0"/>
</linearGradient>
<linearGradient id="paint4_linear_2001_50449" x1="5.93132" y1="8.89776" x2="15.9068" y2="10.1277" gradientUnits="userSpaceOnUse">
<stop stop-color="white"/>
<stop offset="1" stop-color="white" stop-opacity="0"/>
</linearGradient>
<linearGradient id="paint5_linear_2001_50449" x1="5.48738" y1="7.45997" x2="14.0827" y2="12.2633" gradientUnits="userSpaceOnUse">
<stop stop-color="white"/>
<stop offset="1" stop-color="white" stop-opacity="0"/>
</linearGradient>
<linearGradient id="paint6_linear_2001_50449" x1="6.05618" y1="10.2674" x2="17.0129" y2="18.0622" gradientUnits="userSpaceOnUse">
<stop stop-color="#529EE3"/>
<stop offset="1" stop-color="#4088F4"/>
</linearGradient>
</defs>
</svg>
