<svg width="24" height="24" viewBox="0 0 24 24" fill="none" xmlns="http://www.w3.org/2000/svg">
<path fill-rule="evenodd" clip-rule="evenodd" d="M23.9679 10.5C23.9679 10.1364 23.7622 9.89089 23.3507 9.39993C21.6043 7.31617 17.3936 3 12.4765 3C7.55946 3 3.34867 7.31617 1.6023 9.39993C1.19084 9.89089 0.985107 10.1364 0.985107 10.5C0.985107 10.8636 1.19084 11.1091 1.6023 11.6001C3.34867 13.6838 7.55946 18 12.4765 18C17.3936 18 21.6043 13.6838 23.3507 11.6001C23.7622 11.1091 23.9679 10.8636 23.9679 10.5ZM12.4765 14.25C14.6371 14.25 16.3885 12.5711 16.3885 10.5C16.3885 8.42893 14.6371 6.75 12.4765 6.75C10.316 6.75 8.56449 8.42893 8.56449 10.5C8.56449 12.5711 10.316 14.25 12.4765 14.25Z" fill="url(#paint0_linear_384_24439)"/>
<defs>
<linearGradient id="paint0_linear_384_24439" x1="-4.4282" y1="-17.625" x2="30.1838" y2="-12.4008" gradientUnits="userSpaceOnUse">
<stop offset="0.00394059" stop-color="#2C73F3"/>
<stop offset="1" stop-color="#30CDE7"/>
</linearGradient>
</defs>
</svg>
