<svg width="32" height="32" viewBox="0 0 32 32" fill="none" xmlns="http://www.w3.org/2000/svg">
<rect opacity="0.15" width="32" height="32" rx="15" fill="url(#paint0_linear_196_46379)" fill-opacity="0.4"/>
<g clip-path="url(#clip0_196_46379)">
<path d="M16 8C11.5818 8 8 11.5818 8 16C8 19.7517 10.583 22.8998 14.0675 23.7645V18.4448H12.4179V16H14.0675V14.9466C14.0675 12.2237 15.2998 10.9616 17.9731 10.9616C18.48 10.9616 19.3546 11.0611 19.7123 11.1603V13.3763C19.5235 13.3565 19.1955 13.3466 18.7882 13.3466C17.4765 13.3466 16.9696 13.8435 16.9696 15.1354V16H19.5827L19.1338 18.4448H16.9696V23.9414C20.9309 23.463 24.0003 20.0902 24.0003 16C24 11.5818 20.4182 8 16 8Z" fill="url(#paint1_linear_196_46379)" fill-opacity="0.5"/>
</g>
<defs>
<linearGradient id="paint0_linear_196_46379" x1="32" y1="6.75368e-06" x2="-2.0894" y2="2.40686" gradientUnits="userSpaceOnUse">
<stop stop-color="#00B4D2"/>
<stop offset="1" stop-color="#2264DC"/>
</linearGradient>
<linearGradient id="paint1_linear_196_46379" x1="26.5" y1="8" x2="8" y2="24" gradientUnits="userSpaceOnUse">
<stop stop-color="#00B4D2"/>
<stop offset="1" stop-color="#2264DC"/>
</linearGradient>
<clipPath id="clip0_196_46379">
<rect width="16" height="16" fill="white" transform="translate(8 8)"/>
</clipPath>
</defs>
</svg>
