<svg width="32" height="32" viewBox="0 0 32 32" fill="none" xmlns="http://www.w3.org/2000/svg">
<rect opacity="0.15" width="32" height="32" rx="15" fill="url(#paint0_linear_196_46385)"/>
<path fill-rule="evenodd" clip-rule="evenodd" d="M15.6849 9.76045C17.8236 9.76045 18.0769 9.76982 18.918 9.80732C19.6997 9.8417 20.1218 9.97295 20.4033 10.0823C20.7753 10.2261 21.0443 10.4011 21.3225 10.6792C21.604 10.9604 21.7759 11.2261 21.9198 11.5979C22.0292 11.8792 22.1605 12.3042 22.1949 13.0823C22.2325 13.9261 22.2418 14.1792 22.2418 16.3136C22.2418 18.4511 22.2325 18.7042 22.1949 19.5448C22.1605 20.3261 22.0292 20.748 21.9198 21.0292C21.7759 21.4011 21.6008 21.6698 21.3225 21.948C21.0411 22.2292 20.7753 22.4011 20.4033 22.5448C20.1218 22.6542 19.6966 22.7854 18.918 22.8198C18.0738 22.8573 17.8205 22.8667 15.6849 22.8667C13.5461 22.8667 13.2928 22.8573 12.4517 22.8198C11.67 22.7854 11.2479 22.6542 10.9665 22.5448C10.5944 22.4011 10.3255 22.2261 10.0472 21.948C9.76577 21.6667 9.5938 21.4011 9.44996 21.0292C9.34052 20.748 9.2092 20.323 9.1748 19.5448C9.13728 18.7011 9.1279 18.4479 9.1279 16.3136C9.1279 14.1761 9.13728 13.9229 9.1748 13.0823C9.2092 12.3011 9.34052 11.8792 9.44996 11.5979C9.5938 11.2261 9.7689 10.9573 10.0472 10.6792C10.3286 10.3979 10.5944 10.2261 10.9665 10.0823C11.2479 9.97295 11.6731 9.8417 12.4517 9.80732C13.2928 9.76982 13.5461 9.76045 15.6849 9.76045ZM15.6849 8.31982C13.5117 8.31982 13.2397 8.3292 12.3861 8.3667C11.5356 8.4042 10.9508 8.5417 10.4443 8.73857C9.91586 8.94482 9.46872 9.2167 9.02471 9.66357C8.57758 10.1073 8.30554 10.5542 8.09917 11.0792C7.90218 11.5886 7.7646 12.1698 7.72708 13.0198C7.68956 13.8761 7.68018 14.1479 7.68018 16.3198C7.68018 18.4917 7.68956 18.7636 7.72708 19.6167C7.7646 20.4667 7.90218 21.0511 8.09917 21.5573C8.30554 22.0855 8.57758 22.5323 9.02471 22.9761C9.46872 23.4198 9.91586 23.6948 10.4412 23.8979C10.9508 24.0948 11.5324 24.2323 12.3829 24.2698C13.2366 24.3073 13.5086 24.3167 15.6817 24.3167C17.8549 24.3167 18.1269 24.3073 18.9805 24.2698C19.831 24.2323 20.4158 24.0948 20.9223 23.8979C21.4476 23.6948 21.8948 23.4198 22.3388 22.9761C22.7828 22.5323 23.0579 22.0855 23.2612 21.5605C23.4582 21.0511 23.5958 20.4698 23.6333 19.6198C23.6708 18.7667 23.6802 18.4948 23.6802 16.323C23.6802 14.1511 23.6708 13.8792 23.6333 13.0261C23.5958 12.1761 23.4582 11.5917 23.2612 11.0854C23.0642 10.5542 22.7922 10.1073 22.345 9.66357C21.901 9.21982 21.4539 8.94482 20.9286 8.7417C20.4189 8.54482 19.8373 8.40732 18.9868 8.36982C18.13 8.3292 17.858 8.31982 15.6849 8.31982ZM15.6849 12.2104C13.4148 12.2104 11.5731 14.0511 11.5731 16.3198C11.5731 18.5886 13.4148 20.4292 15.6849 20.4292C17.9549 20.4292 19.7966 18.5886 19.7966 16.3198C19.7966 14.0511 17.9549 12.2104 15.6849 12.2104ZM15.6849 18.9854C14.2121 18.9854 13.0177 17.7917 13.0177 16.3198C13.0177 14.8479 14.2121 13.6542 15.6849 13.6542C17.1576 13.6542 18.3521 14.8479 18.3521 16.3198C18.3521 17.7917 17.1576 18.9854 15.6849 18.9854ZM19.9592 13.0073C20.4877 13.0073 20.9192 12.5792 20.9192 12.0479C20.9192 11.5198 20.4877 11.0885 19.9592 11.0885C19.4308 11.0885 18.9993 11.5167 18.9993 12.0479C18.9993 12.576 19.4277 13.0073 19.9592 13.0073Z" fill="url(#paint1_linear_196_46385)"/>
<defs>
<linearGradient id="paint0_linear_196_46385" x1="32" y1="6.75368e-06" x2="-2.0894" y2="2.40686" gradientUnits="userSpaceOnUse">
<stop stop-color="#00B4D2"/>
<stop offset="1" stop-color="#2264DC"/>
</linearGradient>
<linearGradient id="paint1_linear_196_46385" x1="23.6802" y1="8.31983" x2="6.6426" y2="9.57243" gradientUnits="userSpaceOnUse">
<stop stop-color="#00B4D2"/>
<stop offset="1" stop-color="#2264DC"/>
</linearGradient>
</defs>
</svg>
