<svg width="118" height="68" viewBox="0 0 118 68" fill="none" xmlns="http://www.w3.org/2000/svg">
<g clip-path="url(#clip0_2641_24824)">
<path d="M30.3486 68.0005C30.0811 66.9623 29.8164 65.9231 29.5462 64.8858C29.3156 63.9982 29.0785 63.1124 28.8359 62.197H30.0701C30.3966 63.625 30.7222 65.0521 31.0487 66.4792C31.08 66.482 31.1114 66.4847 31.1418 66.4875C31.3687 65.6285 31.5966 64.7704 31.8235 63.9114C31.9489 63.4366 32.0808 62.9627 32.1906 62.4843C32.245 62.2478 32.363 62.1758 32.6038 62.1721C33.5639 62.1554 33.5639 62.1462 33.7927 63.0671C34.0592 64.1395 34.324 65.2119 34.5915 66.2834C34.6081 66.349 34.6394 66.4118 34.7067 66.5854C35.0619 65.053 35.3884 63.6416 35.7204 62.2053H36.9785C36.4242 64.1524 35.8763 66.0765 35.3284 68.0014H33.9449C33.6147 66.6723 33.2845 65.3431 32.9543 64.0139C32.9211 64.0176 32.8869 64.0222 32.8537 64.0259C32.4793 65.3514 32.1057 66.676 31.7312 68.0014H30.3477L30.3486 68.0005Z" fill="white"/>
<path d="M0 62.1818H1.24518C1.57815 63.6403 1.9019 65.0582 2.22565 66.4761C2.25609 66.4816 2.28745 66.4871 2.31789 66.4936C2.69328 65.0757 3.06868 63.657 3.45146 62.2086H4.75568C5.10894 63.6209 5.46497 65.0425 5.821 66.464C5.84959 66.4668 5.87819 66.4696 5.90678 66.4714C6.08941 65.6918 6.27388 64.9123 6.45466 64.1327C6.57918 63.5951 6.71384 63.0593 6.81622 62.5181C6.86603 62.253 6.97948 62.1541 7.24512 62.1744C7.51906 62.1948 7.79485 62.1791 8.14442 62.1791C7.60484 64.1493 7.07725 66.0761 6.54966 68.002H5.16613C4.81471 66.6737 4.46329 65.3455 4.11095 64.0172C4.07682 64.0191 4.04362 64.0218 4.00949 64.0237C3.65715 65.3501 3.30481 66.6756 2.95155 68.002H1.56801C1.3162 67.058 1.0727 66.1112 0.810753 65.17C0.550648 64.2324 0.271173 63.3004 0 62.3666C0 62.3047 0 62.2437 0 62.1818Z" fill="white"/>
<path d="M80.5312 67.9984C80.5405 66.2471 80.5497 64.4958 80.558 62.7454C80.558 62.5791 80.558 62.4129 80.558 62.1782C80.9703 62.1782 81.3494 62.157 81.7229 62.1921C81.8272 62.2013 81.9544 62.3593 82.0061 62.4775C82.5761 63.7808 83.1341 65.0897 83.7318 66.4826C84.1635 65.4804 84.5629 64.5549 84.9613 63.6294C85.1191 63.2627 85.2888 62.9006 85.4225 62.5265C85.5212 62.2503 85.678 62.1459 85.9686 62.1718C86.2554 62.1967 86.5469 62.1773 86.8964 62.1773V68.0003H85.6974V64.5059C85.6632 64.4986 85.6291 64.4902 85.595 64.4828C85.1366 65.655 84.6791 66.8272 84.2207 68.0003H83.2983C82.8086 66.8216 82.3188 65.6439 81.829 64.4653C81.7958 64.4718 81.7635 64.4782 81.7303 64.4847V68.0003H80.5312V67.9984Z" fill="white"/>
<path d="M92.2461 67.9997V62.1795C92.6003 62.1795 92.9351 62.1555 93.2635 62.1925C93.3806 62.2054 93.507 62.3514 93.5844 62.4668C94.3703 63.639 95.1478 64.8176 96.0019 66.108V62.2146H97.2277V68.0006H96.0287C95.181 66.7139 94.3334 65.4272 93.4221 64.0454C93.4101 64.3086 93.4 64.4546 93.3981 64.6015C93.3824 65.7348 93.3686 66.8682 93.3538 68.0015H92.247L92.2461 67.9997Z" fill="white"/>
<path d="M55.625 68.0015V62.1813C55.9635 62.1813 56.2854 62.1527 56.5972 62.1952C56.7291 62.2127 56.8748 62.3559 56.9578 62.4797C57.7437 63.6509 58.5175 64.8304 59.3744 66.1291V62.2146H60.5135V68.0024H59.4067C58.5507 66.7157 57.6948 65.4281 56.8388 64.1414C56.8028 64.1571 56.7669 64.1737 56.7318 64.1894V68.0024H55.625V68.0015Z" fill="white"/>
<path d="M39.668 68.0002V62.1172C40.7296 62.1846 41.7673 62.1477 42.7606 62.3398C44.1156 62.6021 44.7907 63.7373 44.7465 65.3584C44.7123 66.6202 43.8416 67.6242 42.543 67.905C42.4433 67.9263 42.3483 67.9678 42.2515 68.0002H39.6689H39.668ZM40.8716 66.9684C41.8364 67.0229 42.792 67.1106 43.3251 66.1472C43.7273 65.4203 43.7153 64.6204 43.2578 63.9101C42.6878 63.0233 41.7728 63.1563 40.8716 63.1896V66.9684Z" fill="white"/>
<path d="M10.5172 68.0006C9.47306 67.6478 8.68721 67.0344 8.37453 65.9205C7.92626 64.3253 8.76284 62.7125 10.2958 62.2368C11.9053 61.7389 13.5545 62.5444 14.0535 64.074C14.5885 65.7108 13.7934 67.342 12.1912 67.9008C12.1221 67.9249 12.0593 67.9664 11.9929 68.0006H10.5172ZM13.0094 65.0975C13.0168 63.9271 12.2918 63.1235 11.2274 63.1226C10.2073 63.1226 9.4666 63.9114 9.44815 65.018C9.42878 66.1819 10.1519 66.9938 11.2182 67.0058C12.2733 67.0178 13.002 66.2419 13.0094 65.0975Z" fill="white"/>
<path d="M23.6133 68.0018V62.1133C24.6703 62.1881 25.7236 62.1428 26.7198 62.3627C28.0627 62.6592 28.7314 63.7722 28.6872 65.2557C28.6475 66.5765 27.8257 67.5815 26.5325 67.8937C26.4182 67.9214 26.3084 67.9648 26.1968 68.0009H23.6142L23.6133 68.0018ZM24.7856 63.1931V66.9756C25.7107 67.0042 26.6497 67.1363 27.2059 66.2117C27.6587 65.4598 27.6458 64.6405 27.1708 63.9043C26.6008 63.0213 25.6812 63.1598 24.7856 63.194V63.1931Z" fill="white"/>
<path d="M14.9453 68.0005V62.233C15.8815 62.233 16.802 62.1628 17.7059 62.2533C18.5683 62.3392 19.1079 62.9627 19.1872 63.7201C19.2749 64.5579 18.9115 65.1795 18.1108 65.5601C18.0564 65.586 18.0011 65.6118 17.9015 65.6589C18.3663 66.4478 18.8229 67.2237 19.2804 68.0005H17.8969C17.5353 67.3447 17.1599 66.6944 16.8168 66.0293C16.6498 65.7051 16.4248 65.6451 16.0521 65.767V68.0005H14.9453ZM16.0872 64.8507C16.482 64.8507 16.8195 64.8618 17.1553 64.8479C17.6469 64.8267 17.9577 64.5394 17.9909 64.0988C18.0324 63.5539 17.8194 63.2389 17.2724 63.165C16.8887 63.1133 16.4912 63.1548 16.0863 63.1548V64.8507H16.0872Z" fill="white"/>
<path d="M72.599 67.9997C72.2541 67.7827 71.8593 67.6164 71.5817 67.3328C71.3566 67.1037 71.2745 66.7352 71.0938 66.3546H72.3924C72.5409 66.8322 72.8425 67.1268 73.395 67.0806C73.7594 67.0502 74.0674 66.9338 74.1597 66.544C74.2574 66.1293 74.0361 65.8568 73.6717 65.7136C73.2724 65.5575 72.8555 65.4476 72.4515 65.3053C71.4996 64.97 71.1537 64.4953 71.2118 63.6196C71.2635 62.8465 71.7726 62.3292 72.6839 62.1537C73.4716 62.0022 74.2187 62.0789 74.8404 62.6497C75.1466 62.9305 75.3135 63.2797 75.2794 63.7452C74.9741 63.7452 74.6808 63.7711 74.3958 63.7341C74.2491 63.7147 74.0702 63.6159 73.9863 63.4967C73.728 63.1291 73.2106 62.9167 72.8223 63.1291C72.647 63.2252 72.4515 63.4607 72.4441 63.6418C72.4358 63.8422 72.5787 64.1433 72.7475 64.2366C73.1451 64.4574 73.5915 64.5922 74.0259 64.741C74.9566 65.0605 75.3514 65.4697 75.3753 66.1644C75.4067 67.0733 75.0913 67.5222 74.1366 67.9332C74.1117 67.9443 74.096 67.9766 74.0767 67.9988H72.6009L72.599 67.9997Z" fill="white"/>
<path d="M103.778 67.9991C103.433 67.7626 103.041 67.5714 102.757 67.2758C102.546 67.056 102.474 66.7013 102.312 66.3466H103.61C103.75 66.8509 104.08 67.1243 104.641 67.08C105.017 67.0505 105.3 66.8879 105.394 66.5184C105.488 66.1471 105.271 65.8857 104.955 65.7508C104.548 65.5772 104.118 65.4589 103.7 65.3148C102.775 64.9943 102.348 64.4586 102.408 63.6975C102.474 62.8634 102.97 62.3147 103.911 62.1605C104.338 62.0902 104.804 62.1069 105.227 62.2002C105.987 62.3683 106.438 62.8763 106.539 63.7104H105.29C105.139 63.2412 104.799 63.0186 104.286 63.0721C103.972 63.1054 103.732 63.2255 103.653 63.5691C103.572 63.9136 103.737 64.1427 104.01 64.2849C104.265 64.4179 104.549 64.4983 104.822 64.5971C105.053 64.6803 105.286 64.7551 105.517 64.8382C106.167 65.0728 106.592 65.5107 106.612 66.2228C106.632 66.9442 106.302 67.4901 105.641 67.8162C105.538 67.867 105.444 67.9381 105.345 67.9991H103.777H103.778Z" fill="white"/>
<path d="M63.0987 67.9995C62.7399 66.9751 62.3848 65.9498 62.0205 64.9273C61.7023 64.035 61.3749 63.1455 61.0234 62.1802C61.4127 62.1802 61.7456 62.1525 62.0685 62.195C62.1828 62.2107 62.323 62.3816 62.3692 62.5118C62.8331 63.8115 63.2804 65.1166 63.7333 66.42C63.7619 66.5013 63.8034 66.5788 63.8763 66.7377C64.308 65.4917 64.7166 64.326 65.1159 63.1575C65.4775 62.1008 65.4738 62.0999 66.6673 62.2126C65.9664 64.1514 65.27 66.0754 64.5736 68.0004H63.0978L63.0987 67.9995Z" fill="white"/>
<path d="M45.4805 68.0015V62.2109H48.8563V63.1032H46.7044V64.5571H48.5888V65.4836H46.71V67.0289H48.8941V68.0015H45.4814H45.4805Z" fill="white"/>
<path d="M87.9141 67.9988V62.2109H91.288V63.0977H89.1436V64.5543H91.0224V65.4826H89.1463V67.027H91.3268V67.9988H87.9141Z" fill="white"/>
<path d="M67.1562 68.0015V62.2109H70.4952V63.1171H68.3498V64.5783H70.2581V65.491H68.3526V67.027H70.5219C70.5063 67.379 70.4915 67.6902 70.4777 68.0015H67.1572H67.1562Z" fill="white"/>
<path d="M99.2574 68.002V63.1175H97.7383V62.2188H101.976V63.1009H100.456V68.002H99.2574Z" fill="white"/>
<path d="M77.3042 67.9997V63.1115H75.8008V62.2109H80.003V63.1004H78.5042V67.9997H77.3051H77.3042Z" fill="white"/>
<path d="M20.0195 68.0017V62.2148H21.1918V67.054H23.1205C23.0993 67.4041 23.0818 67.7034 23.0642 68.0017H20.0205H20.0195Z" fill="white"/>
<path d="M37.4531 68.0015V62.2109H38.6522V68.0015H37.4531Z" fill="white"/>
<path d="M53.4102 67.9986V62.207H54.517V67.9986H53.4102Z" fill="white"/>
<path d="M68.6383 25.2999C68.2232 26.3391 67.8331 27.32 67.4392 28.3001C64.2276 36.2946 61.0159 44.2882 57.8043 52.2827C57.3237 53.4798 56.8487 54.6787 56.3507 55.8684C56.2879 56.0172 56.1007 56.2167 55.9697 56.2176C54.0033 56.2398 52.0368 56.2333 49.9809 56.2333C51.6503 52.0943 53.2977 48.0088 54.9828 43.83H54.3759C50.6099 43.83 46.8448 43.8374 43.0788 43.8189C42.6693 43.8171 42.4932 43.9547 42.3483 44.3214C40.8274 48.1621 39.2861 51.9945 37.7642 55.8352C37.6434 56.1391 37.494 56.2444 37.1665 56.2416C35.2785 56.2259 33.3895 56.2333 31.4258 56.2333C31.6979 55.535 31.9469 54.8829 32.2061 54.2354C35.9896 44.7703 39.7768 35.3062 43.5529 25.8385C43.707 25.4514 43.8822 25.2842 44.3351 25.2852C52.2812 25.3027 60.2273 25.299 68.1744 25.2999C68.309 25.2999 68.4437 25.2999 68.6411 25.2999H68.6383ZM59.9451 31.5108C59.7975 31.4979 59.7385 31.4877 59.6794 31.4877C55.7327 31.4877 51.7859 31.4914 47.8391 31.4803C47.5486 31.4803 47.4398 31.5995 47.3448 31.8406C46.6355 33.639 45.9151 35.4328 45.2003 37.2284C45.1459 37.3642 45.1034 37.5046 45.0527 37.6524C45.1459 37.6709 45.1901 37.6866 45.2353 37.6866C49.2125 37.6884 53.1907 37.6857 57.1679 37.6967C57.4603 37.6967 57.5248 37.5305 57.6069 37.3273C58.1788 35.9029 58.7534 34.4805 59.3271 33.0571C59.5263 32.562 59.7237 32.0659 59.946 31.5108H59.9451Z" fill="white"/>
<path d="M0.481391 56.2346C0.741496 55.5733 0.967474 54.9914 1.19899 54.4131C4.41432 46.3706 7.62966 38.329 10.8459 30.2864C11.4676 28.7319 12.0976 27.181 12.71 25.6237C12.8013 25.3927 12.9037 25.293 13.1693 25.293C21.2077 25.3013 29.246 25.2994 37.2844 25.3004C37.36 25.3004 37.4347 25.3133 37.5712 25.3253C37.2659 26.104 36.9772 26.8577 36.6766 27.6059C32.9106 36.9804 29.139 46.353 25.3841 55.7331C25.2255 56.1303 25.0336 56.2522 24.6158 56.2467C22.8947 56.2208 21.1736 56.2356 19.4515 56.2337C19.3039 56.2337 19.1564 56.2199 18.9359 56.2097C20.6008 52.0753 22.2435 47.9954 23.9093 43.8591C23.7027 43.848 23.5422 43.8323 23.3826 43.8323C19.6166 43.8314 15.8516 43.836 12.0856 43.8231C11.7369 43.8221 11.5755 43.933 11.4482 44.2535C9.91803 48.108 8.36847 51.9552 6.84105 55.8107C6.71284 56.1349 6.56157 56.2494 6.212 56.2457C4.33777 56.2282 2.46446 56.2374 0.480469 56.2374L0.481391 56.2346ZM28.8891 31.5325C28.7849 31.5085 28.7406 31.49 28.6954 31.49C24.7477 31.4881 20.8 31.49 16.8532 31.4798C16.5645 31.4798 16.5009 31.6387 16.4179 31.8475C15.6975 33.6588 14.9698 35.4665 14.2467 37.2769C14.1987 37.397 14.1673 37.5226 14.1148 37.6889C18.1685 37.6889 22.1605 37.6907 26.1525 37.6796C26.2677 37.6796 26.4439 37.5632 26.4873 37.4579C27.2916 35.5016 28.0793 33.5387 28.8891 31.5334V31.5325Z" fill="white"/>
<path d="M62.3516 56.2227C63.2997 53.8479 64.2193 51.5387 65.1417 49.2313C68.2657 41.4206 71.3944 33.6108 74.5073 25.7955C74.6549 25.4251 74.8209 25.2847 75.2286 25.2902C76.9497 25.3143 78.6718 25.317 80.3938 25.2866C80.8245 25.2792 80.9712 25.4353 81.0717 25.8195C82.0808 29.6611 83.1055 33.4991 84.1257 37.337C84.145 37.409 84.1662 37.4792 84.2124 37.6409C84.6219 37.0876 84.9899 36.5925 85.3542 36.0955C92.0072 27.0222 98.6602 17.9488 105.312 8.87448C107.348 6.09695 109.383 3.31942 111.409 0.535431C111.588 0.288806 111.773 0.191819 112.086 0.183506C113.883 0.139169 115.678 0.0652739 117.474 0.00246317C117.627 -0.00307896 117.779 0.00246317 117.998 0.00246317C117.826 0.250011 117.687 0.461536 117.537 0.664747C110.84 9.80186 104.142 18.939 97.4427 28.0761C93.6896 33.1952 89.9328 38.3105 86.1862 43.4342C85.9796 43.7169 85.7693 43.8462 85.4013 43.8416C83.634 43.8185 81.8659 43.8231 80.0977 43.8379C79.7675 43.8407 79.6264 43.7529 79.5379 43.413C78.8092 40.6077 78.0556 37.8081 77.3085 35.0074C77.2855 34.9215 77.255 34.8375 77.1978 34.6555C77.0567 34.9788 76.9451 35.2162 76.8483 35.4591C74.1393 42.2316 71.4285 49.0031 68.7361 55.7821C68.5895 56.1516 68.4041 56.2569 68.0324 56.2532C66.2799 56.2365 64.5274 56.2458 62.7749 56.2448C62.6559 56.2448 62.536 56.2338 62.3534 56.2236L62.3516 56.2227Z" fill="white"/>
<path d="M105.657 56.2112H99.4748C99.1012 54.361 98.7267 52.5294 98.3615 50.6959C97.5738 46.7388 96.7898 42.7808 96.0113 38.8219C95.9845 38.6879 95.9882 38.5023 96.062 38.4016C97.6079 36.278 99.1658 34.1628 100.722 32.0466C100.729 32.0364 100.748 32.0355 100.817 32.0078C102.429 40.067 104.039 48.116 105.658 56.2121L105.657 56.2112Z" fill="white"/>
</g>
<defs>
<clipPath id="clip0_2641_24824">
<rect width="118" height="68" fill="white"/>
</clipPath>
</defs>
</svg>
