<svg width="29" height="29" viewBox="0 0 29 29" fill="none" xmlns="http://www.w3.org/2000/svg">
<path fill-rule="evenodd" clip-rule="evenodd" d="M9.74435 22.5047C8.19279 22.5047 6.9328 23.7647 6.9328 25.3162C6.9328 26.8687 8.19279 28.1278 9.74435 28.1278C11.2968 28.1278 12.5559 26.8687 12.5559 25.3162C12.5559 23.7647 11.2968 22.5047 9.74435 22.5047ZM22.8693 22.5047C21.3178 22.5047 20.0578 23.7647 20.0578 25.3162C20.0578 26.8687 21.3178 28.1278 22.8693 28.1278C24.4218 28.1278 25.6809 26.8687 25.6809 25.3162C25.6809 23.7647 24.4218 22.5047 22.8693 22.5047ZM8.31373 16.3565C8.31373 16.3565 19.4437 16.0256 22.6012 15.9656C23.7169 15.944 24.7153 15.2644 25.1437 14.2341C25.8721 12.4847 27.2906 9.07688 28.2806 6.69845C28.6415 5.83032 28.545 4.83936 28.0228 4.05655C27.5015 3.27468 26.6231 2.805 25.6828 2.805L6.28781 2.8125L6.22593 2.39905C6.02061 1.0228 4.83935 0.0046788 3.44811 0.0028038C2.4328 0.0018663 1.31344 0 1.31344 0C0.795944 0 0.375937 0.419055 0.375 0.936555C0.375 1.45405 0.794055 1.875 1.31155 1.875C1.31155 1.875 2.43093 1.87686 3.4453 1.8778C3.90936 1.87874 4.30312 2.21813 4.37156 2.67657L6.45841 16.6341C6.80248 18.93 8.77404 20.6278 11.0944 20.6278H24.749C25.2665 20.6278 25.6865 20.2078 25.6865 19.6903C25.6865 19.1737 25.2665 18.7528 24.749 18.7528H11.0953C9.70217 18.7528 8.51904 17.7337 8.31373 16.3565Z" fill="#F4F7FE"/>
</svg>
