<svg width="40" height="40" viewBox="0 0 40 40" fill="none" xmlns="http://www.w3.org/2000/svg">
<path d="M10 0C8.625 0 7.5 1.125 7.5 2.5V37.5C7.5 38.875 8.625 40 10 40H35C36.375 40 37.5 38.875 37.5 37.5V10L27.5 0H10Z" fill="#E2E5E7"/>
<path d="M30 10H37.5L27.5 0V7.5C27.5 8.875 28.625 10 30 10Z" fill="#B0B7BD"/>
<path d="M37.5 17.5L30 10H37.5V17.5Z" fill="#CAD1D8"/>
<path d="M32.5 32.5C32.5 33.1875 31.9375 33.75 31.25 33.75H3.75C3.0625 33.75 2.5 33.1875 2.5 32.5V20C2.5 19.3125 3.0625 18.75 3.75 18.75H31.25C31.9375 18.75 32.5 19.3125 32.5 20V32.5Z" fill="#F15642"/>
<path d="M7.94727 23.6841C7.94727 23.3541 8.20727 22.9941 8.62602 22.9941H10.9347C12.2347 22.9941 13.4047 23.8641 13.4047 25.5316C13.4047 27.1116 12.2347 27.9916 10.9347 27.9916H9.26602V29.3116C9.26602 29.7516 8.98602 30.0003 8.62602 30.0003C8.29602 30.0003 7.94727 29.7516 7.94727 29.3116V23.6841ZM9.26602 24.2528V26.7428H10.9347C11.6047 26.7428 12.1347 26.1516 12.1347 25.5316C12.1347 24.8328 11.6047 24.2528 10.9347 24.2528H9.26602Z" fill="white"/>
<path d="M15.3638 29.9983C15.0338 29.9983 14.6738 29.8183 14.6738 29.3795V23.702C14.6738 23.3433 15.0338 23.082 15.3638 23.082H17.6526C22.2201 23.082 22.1201 29.9983 17.7426 29.9983H15.3638ZM15.9938 24.302V28.7795H17.6526C20.3513 28.7795 20.4713 24.302 17.6526 24.302H15.9938Z" fill="white"/>
<path d="M23.7391 24.3833V25.972H26.2878C26.6478 25.972 27.0078 26.332 27.0078 26.6808C27.0078 27.0108 26.6478 27.2808 26.2878 27.2808H23.7391V29.3795C23.7391 29.7295 23.4903 29.9983 23.1403 29.9983C22.7003 29.9983 22.4316 29.7295 22.4316 29.3795V23.702C22.4316 23.3433 22.7016 23.082 23.1403 23.082H26.6491C27.0891 23.082 27.3491 23.3433 27.3491 23.702C27.3491 24.022 27.0891 24.382 26.6491 24.382H23.7391V24.3833Z" fill="white"/>
<path d="M31.25 33.75H7.5V35H31.25C31.9375 35 32.5 34.4375 32.5 33.75V32.5C32.5 33.1875 31.9375 33.75 31.25 33.75Z" fill="#CAD1D8"/>
</svg>
