<svg width="22" height="20" viewBox="0 0 22 20" fill="none" xmlns="http://www.w3.org/2000/svg">
<path d="M15.9764 2.37152C16.518 3.3098 16.518 4.56973 16.518 7.08958C16.518 9.60942 16.518 10.8694 15.9764 11.8078C15.6213 12.4226 15.1108 12.9331 14.496 13.288C13.5576 13.8298 12.2976 13.8298 9.77799 13.8298H7.08172C6.32234 13.8298 5.6774 13.8298 5.12129 13.815L2.36945 15.4484C2.08582 15.6167 1.73092 15.393 1.76025 15.0643L1.94473 13.0099C1.51546 12.6852 1.15415 12.2768 0.883325 11.8078C0.341675 10.8694 0.341675 9.60942 0.341675 7.08958C0.341675 4.56973 0.341675 3.3098 0.883325 2.37152C1.23843 1.75674 1.74889 1.24608 2.36367 0.891179C3.30216 0.349385 4.56208 0.349386 7.08172 0.349386L9.77799 0.349365C12.2976 0.349365 13.5576 0.349364 14.496 0.891179C15.1108 1.24608 15.6213 1.75674 15.9764 2.37152Z" fill="url(#paint0_linear_2001_50448)"/>
<path d="M6.27306 6.41335C5.7312 7.35184 5.7312 8.61176 5.7312 11.1316C5.7312 13.6515 5.7312 14.9112 6.27306 15.8497C6.62796 16.4644 7.13841 16.9751 7.75319 17.33C8.69168 17.8719 9.9516 17.8719 12.4715 17.8719H15.1675C15.9604 17.8719 16.6284 17.8719 17.2011 17.8549L19.8754 19.4784C20.1591 19.6507 20.5179 19.427 20.4882 19.0967L20.3047 17.052C20.7338 16.727 21.0951 16.3188 21.3659 15.8497C21.9078 14.9112 21.9078 13.6515 21.9078 11.1316C21.9078 8.61176 21.9078 7.35184 21.3659 6.41335C21.011 5.79857 20.5003 5.28812 19.8856 4.93321C18.9473 4.39136 17.6874 4.39136 15.1675 4.39136H12.4715C9.9516 4.39136 8.69168 4.39136 7.75319 4.93321C7.13841 5.28812 6.62796 5.79857 6.27306 6.41335Z" fill="#6AE092" fill-opacity="0.6"/>
<path d="M17.3306 9.81655C17.7101 9.81655 18.0177 9.50891 18.0177 9.12941C18.0177 8.74991 17.7101 8.44226 17.3306 8.44226H10.4591C10.0796 8.44226 9.77194 8.74991 9.77194 9.12941C9.77194 9.50891 10.0796 9.81655 10.4591 9.81655H17.3306Z" fill="url(#paint1_linear_2001_50448)" fill-opacity="0.9"/>
<path d="M17.3311 9.76548C17.6826 9.76548 17.9677 9.48047 17.9677 9.12889C17.9677 8.77732 17.6826 8.49231 17.3311 8.49231H10.4596C10.108 8.49231 9.82301 8.77732 9.82301 9.12889C9.82301 9.48047 10.108 9.76548 10.4596 9.76548H17.3311Z" stroke="url(#paint2_linear_2001_50448)" stroke-width="0.489516"/>
<path d="M16.0923 13.2482V13.2482C16.0923 12.8293 15.7527 12.4897 15.3339 12.4897H10.5305C10.1116 12.4897 9.77205 12.8293 9.77205 13.2482C9.77205 13.667 10.1116 14.0066 10.5305 14.0066H15.3339C15.7527 14.0066 16.0923 13.667 16.0923 13.2482Z" fill="url(#paint3_linear_2001_50448)" fill-opacity="0.9"/>
<path d="M15.3344 13.9563C15.7253 13.9563 16.0422 13.6393 16.0422 13.2484C16.0422 12.8575 15.7253 12.5405 15.3344 12.5405H10.531C10.14 12.5405 9.82312 12.8575 9.82312 13.2484C9.82312 13.6393 10.14 13.9563 10.531 13.9563H15.3344Z" stroke="url(#paint4_linear_2001_50448)" stroke-width="0.489516"/>
<defs>
<linearGradient id="paint0_linear_2001_50448" x1="-3.24416" y1="0.35455" x2="3.21353" y2="23.6512" gradientUnits="userSpaceOnUse">
<stop stop-color="#75EDA1"/>
<stop offset="1" stop-color="#349256"/>
</linearGradient>
<linearGradient id="paint1_linear_2001_50448" x1="18.9911" y1="10.8468" x2="11.1539" y2="9.07707" gradientUnits="userSpaceOnUse">
<stop stop-color="white" stop-opacity="0"/>
<stop offset="0.979167" stop-color="white"/>
</linearGradient>
<linearGradient id="paint2_linear_2001_50448" x1="18.0181" y1="9.23" x2="9.77246" y2="9.23" gradientUnits="userSpaceOnUse">
<stop stop-color="white" stop-opacity="0"/>
<stop offset="1" stop-color="white"/>
</linearGradient>
<linearGradient id="paint3_linear_2001_50448" x1="16.16" y1="14.4995" x2="11.0272" y2="13.8141" gradientUnits="userSpaceOnUse">
<stop stop-color="white" stop-opacity="0"/>
<stop offset="0.979167" stop-color="white"/>
</linearGradient>
<linearGradient id="paint4_linear_2001_50448" x1="16.0928" y1="13.3495" x2="9.77257" y2="13.3495" gradientUnits="userSpaceOnUse">
<stop stop-color="white" stop-opacity="0"/>
<stop offset="1" stop-color="white"/>
</linearGradient>
</defs>
</svg>
