<svg width="20" height="23" viewBox="0 0 20 23" fill="none" xmlns="http://www.w3.org/2000/svg">
<path d="M16.0193 6.14307C16.6566 5.74458 16.8503 4.90484 16.452 4.26734C16.0536 3.63004 15.2138 3.43627 14.5765 3.83456L3.71151 10.6252C3.61607 10.682 3.52703 10.751 3.44646 10.8316C3.18762 11.09 3.04818 11.4389 3.04797 11.7942C3.04777 11.9853 3.08784 12.1783 3.17109 12.3601C3.23741 12.5057 3.32995 12.6406 3.44667 12.7571C3.52703 12.8375 3.61607 12.9065 3.71151 12.9633L14.5765 19.7539C15.2138 20.1522 16.0536 19.9584 16.452 19.3209C16.8503 18.6836 16.6566 17.8439 16.0193 17.4454L6.97731 11.7942L16.0193 6.14307Z" fill="url(#paint0_linear_2001_50450)"/>
<path d="M4.40802 15.877C6.66315 15.877 8.49128 14.0488 8.49128 11.7937C8.49128 9.53859 6.66315 7.71045 4.40802 7.71045C2.1529 7.71045 0.324768 9.53859 0.324768 11.7937C0.324768 14.0488 2.1529 15.877 4.40802 15.877Z" fill="#B9DDFF" fill-opacity="0.6"/>
<path d="M4.40774 15.8135C6.62795 15.8135 8.42778 14.0137 8.42778 11.7935C8.42778 9.57327 6.62795 7.77344 4.40774 7.77344C2.18753 7.77344 0.387695 9.57327 0.387695 11.7935C0.387695 14.0137 2.18753 15.8135 4.40774 15.8135Z" stroke="url(#paint1_linear_2001_50450)" stroke-width="0.611895"/>
<path d="M15.2976 9.07167C17.5527 9.07167 19.3809 7.24353 19.3809 4.98841C19.3809 2.73329 17.5527 0.905151 15.2976 0.905151C13.0425 0.905151 11.2144 2.73329 11.2144 4.98841C11.2144 7.24353 13.0425 9.07167 15.2976 9.07167Z" fill="#B9DDFF" fill-opacity="0.6"/>
<path d="M15.2973 9.00823C17.5175 9.00823 19.3174 7.20839 19.3174 4.98819C19.3174 2.76798 17.5175 0.96814 15.2973 0.96814C13.0771 0.96814 11.2773 2.76798 11.2773 4.98819C11.2773 7.20839 13.0771 9.00823 15.2973 9.00823Z" stroke="url(#paint2_linear_2001_50450)" stroke-width="0.611895"/>
<path d="M15.2976 22.6838C17.5527 22.6838 19.3809 20.8557 19.3809 18.6006C19.3809 16.3455 17.5527 14.5173 15.2976 14.5173C13.0425 14.5173 11.2144 16.3455 11.2144 18.6006C11.2144 20.8557 13.0425 22.6838 15.2976 22.6838Z" fill="#B9DDFF" fill-opacity="0.6"/>
<path d="M15.2973 22.6204C17.5175 22.6204 19.3174 20.8206 19.3174 18.6004C19.3174 16.3802 17.5175 14.5803 15.2973 14.5803C13.0771 14.5803 11.2773 16.3802 11.2773 18.6004C11.2773 20.8206 13.0771 22.6204 15.2973 22.6204Z" stroke="url(#paint3_linear_2001_50450)" stroke-width="0.611895"/>
<defs>
<linearGradient id="paint0_linear_2001_50450" x1="6.97421" y1="7.20055" x2="17.7667" y2="10.2932" gradientUnits="userSpaceOnUse">
<stop stop-color="#7FC0FB"/>
<stop offset="1" stop-color="#4088F4"/>
</linearGradient>
<linearGradient id="paint1_linear_2001_50450" x1="-0.339441" y1="8.16761" x2="7.12983" y2="17.2379" gradientUnits="userSpaceOnUse">
<stop stop-color="white"/>
<stop offset="1" stop-color="white" stop-opacity="0"/>
</linearGradient>
<linearGradient id="paint2_linear_2001_50450" x1="9.85315" y1="0.905009" x2="21.4222" y2="11.7937" gradientUnits="userSpaceOnUse">
<stop stop-color="white"/>
<stop offset="1" stop-color="white" stop-opacity="0"/>
</linearGradient>
<linearGradient id="paint3_linear_2001_50450" x1="10.5336" y1="14.5171" x2="20.0612" y2="23.3643" gradientUnits="userSpaceOnUse">
<stop stop-color="white"/>
<stop offset="1" stop-color="white" stop-opacity="0"/>
</linearGradient>
</defs>
</svg>
