<svg width="32" height="32" viewBox="0 0 32 32" fill="none" xmlns="http://www.w3.org/2000/svg">
<rect opacity="0.15" width="32" height="32" rx="15" fill="url(#paint0_linear_196_46389)" fill-opacity="0.4"/>
<g clip-path="url(#clip0_196_46389)">
<path fill-rule="evenodd" clip-rule="evenodd" d="M9.12471 9.12471C8 10.2494 8 12.0596 8 15.68V16.32C8 19.9404 8 21.7506 9.12471 22.8753C10.2494 24 12.0596 24 15.68 24H16.32C19.9404 24 21.7506 24 22.8753 22.8753C24 21.7506 24 19.9404 24 16.32V15.68C24 12.0596 24 10.2494 22.8753 9.12471C21.7506 8 19.9404 8 16.32 8H15.68C12.0596 8 10.2494 8 9.12471 9.12471ZM10.7 12.8667C10.7867 17.0267 12.8667 19.5267 16.5134 19.5267H16.7201V17.1467C18.0601 17.28 19.0733 18.26 19.48 19.5267H21.3734C20.8534 17.6334 19.4866 16.5867 18.6333 16.1867C19.4866 15.6934 20.6866 14.4934 20.9733 12.8667H19.2533C18.8799 14.1867 17.7734 15.3867 16.7201 15.5V12.8667H15V17.48C13.9333 17.2134 12.5867 15.92 12.5267 12.8667H10.7Z" fill="url(#paint1_linear_196_46389)" fill-opacity="0.5"/>
</g>
<defs>
<linearGradient id="paint0_linear_196_46389" x1="32" y1="6.75368e-06" x2="-2.0894" y2="2.40686" gradientUnits="userSpaceOnUse">
<stop stop-color="#00B4D2"/>
<stop offset="1" stop-color="#2264DC"/>
</linearGradient>
<linearGradient id="paint1_linear_196_46389" x1="26.4996" y1="8" x2="7.94166" y2="23.9911" gradientUnits="userSpaceOnUse">
<stop stop-color="#00B4D2"/>
<stop offset="1" stop-color="#2264DC"/>
</linearGradient>
<clipPath id="clip0_196_46389">
<rect width="16" height="16" fill="white" transform="translate(8 8)"/>
</clipPath>
</defs>
</svg>
