<svg width="24" height="24" viewBox="0 0 24 24" fill="none" xmlns="http://www.w3.org/2000/svg">
<path d="M6.28528 24H17.7147C18.1132 24 18.5117 23.9638 18.8921 23.8823V15.6408H16.9449C15.1064 15.6408 13.6121 14.1464 13.6121 12.3079C13.6121 10.4694 15.1064 8.97509 16.9449 8.97509H18.8921V0.117736C18.5117 0.0362265 18.1132 0 17.7147 0H6.28528C2.8166 0 0 2.8166 0 6.28528V17.7147C0 21.1834 2.8166 24 6.28528 24Z" fill="#83BEFF"/>
<path d="M23.5469 8.97606C23.7009 8.97606 23.8548 8.99417 23.9997 9.03945V6.28625C23.9997 3.90436 22.6684 1.82134 20.7031 0.761719V8.97606H23.5469Z" fill="#83BEFF"/>
<path d="M23.9997 15.5781C23.8548 15.6234 23.7009 15.6415 23.5469 15.6415H20.7031V23.24C22.6684 22.1804 23.9997 20.0974 23.9997 17.7155V15.5781Z" fill="#83BEFF"/>
<path d="M23.4933 10.7324H23.3846L22.814 10.7415L16.9453 10.7868C16.1031 10.7868 15.4238 11.466 15.4238 12.3083C15.4238 13.1505 16.1031 13.8298 16.9453 13.8298H23.4933V10.7324ZM17.0993 13.1596C16.6284 13.1596 16.248 12.7792 16.248 12.3083C16.248 11.8373 16.6284 11.4569 17.0993 11.4569C17.5702 11.4569 17.9597 11.8373 17.9597 12.3083C17.9597 12.7792 17.5702 13.1596 17.0993 13.1596Z" fill="#83BEFF"/>
</svg>
